<svg width="64" height="67" viewBox="0 0 64 67" fill="none" xmlns="http://www.w3.org/2000/svg">
<g clip-path="url(#clip0_302815_4209)">
<path d="M29.851 31.3737H31.9833V41.2257H29.851V31.3737Z" fill="#4D5AE5"/>
<path d="M38.3799 35.7524H40.5121V41.2257H38.3799V35.7524Z" fill="#4D5AE5"/>
<path d="M21.3222 39.0364H23.4544V41.2257H21.3222V39.0364Z" fill="#4D5AE5"/>
<path d="M14.9255 37.9417H17.0577V41.2257H14.9255V37.9417Z" fill="#4D5AE5"/>
<path d="M3.19833 58.7404H54.3715C56.1378 58.7404 57.5699 57.27 57.5699 55.4564V51.0777C57.5699 49.2641 56.1378 47.7937 54.3715 47.7937H53.3054V20.495L59.3611 14.6047C60.7666 15.3162 62.4678 14.8843 63.3876 13.5806C64.308 12.2775 64.1789 10.4832 63.0826 9.33292C61.9863 8.18267 60.2424 8.01109 58.953 8.9267C57.6641 9.84284 57.206 11.5794 57.8681 13.0381L53.3054 17.4793V14.9538C53.3054 13.1402 51.8734 11.6698 50.1071 11.6698H7.46276C5.6965 11.6698 4.26443 13.1402 4.26443 14.9538V47.7937H3.19833C1.43206 47.7937 0 49.2641 0 51.0777V55.4564C0 57.27 1.43206 58.7404 3.19833 58.7404ZM60.7682 10.5751C61.3569 10.5751 61.8343 11.0652 61.8343 11.6698C61.8343 12.2743 61.3569 12.7644 60.7682 12.7644C60.1794 12.7644 59.7021 12.2743 59.7021 11.6698C59.7021 11.0652 60.1794 10.5751 60.7682 10.5751ZM6.39665 14.9538C6.39665 14.3492 6.874 13.8591 7.46276 13.8591H50.1071C50.6958 13.8591 51.1732 14.3492 51.1732 14.9538V19.551L49.041 21.6313V17.1431C49.041 16.5386 48.5636 16.0484 47.9749 16.0484H9.59498C9.00622 16.0484 8.52887 16.5386 8.52887 17.1431V44.5097C8.52887 45.1143 9.00622 45.6044 9.59498 45.6044H47.9749C48.5636 45.6044 49.041 45.1143 49.041 44.5097V24.6427L51.1732 22.5683V47.7937H6.39665V14.9538ZM15.9916 29.1844C14.5492 29.1801 13.2826 30.1668 12.899 31.5945C12.5153 33.0222 13.1093 34.5364 14.3498 35.2922C15.5898 36.048 17.1697 35.8582 18.2061 34.8282L21.912 36.7375C22.3425 36.9588 22.8646 36.8551 23.1847 36.4857L31.0624 27.3858L38.8062 33.3439C39.2216 33.6636 39.8016 33.6294 40.1784 33.2632L46.9088 26.7171V43.4151H10.6611V18.2378H46.9088V23.7009L39.3658 31.0354L31.5569 25.0244C31.1134 24.6834 30.4892 24.7475 30.1207 25.1724L22.1348 34.3985L19.1493 32.8655C19.1712 32.7341 19.1847 32.6015 19.19 32.4684C19.19 30.6548 17.7579 29.1844 15.9916 29.1844ZM17.0577 32.4684C17.0577 33.0729 16.5804 33.5631 15.9916 33.5631C15.4029 33.5631 14.9255 33.0729 14.9255 32.4684C14.9255 31.8639 15.4029 31.3737 15.9916 31.3737C16.5804 31.3737 17.0577 31.8639 17.0577 32.4684ZM23.4544 49.9831H34.1155V51.0777C34.1155 51.6822 33.6381 52.1724 33.0494 52.1724H24.5205C23.9317 52.1724 23.4544 51.6822 23.4544 51.0777V49.9831ZM2.13222 51.0777C2.13222 50.4732 2.60957 49.9831 3.19833 49.9831H21.3222V51.0777C21.3222 52.8913 22.7542 54.3617 24.5205 54.3617H33.0494C34.8156 54.3617 36.2477 52.8913 36.2477 51.0777V49.9831H54.3715C54.9603 49.9831 55.4376 50.4732 55.4376 51.0777V55.4564C55.4376 56.0609 54.9603 56.551 54.3715 56.551H3.19833C2.60957 56.551 2.13222 56.0609 2.13222 55.4564V51.0777Z" fill="#2E2F42"/>
</g>
<defs>
<clipPath id="clip0_302815_4209">
<rect width="64" height="65.7143" fill="white" transform="translate(0 0.642853)"/>
</clipPath>
</defs>
</svg>
